# xmcd CD database file
#
# Track frame offsets:
#	150
#	16605
#	42062
#	66772
#
# Disc length: 1109 seconds
#
# Revision: 0
# Processed by: cddbd v1.5PL3 Copyright (c) Steve Scherf et al.
# Submitted via: CDex 1.51
#
DISCID=23045304
DTITLE=N.W.O (NEW WAVE OYAJI) - Oyaji ParaPra 〜いーんじゃない 2001〜
DYEAR=2000
DGENRE=Other
TTITLE0=Oyaji ParaPra 〜いーんじゃない 2001〜
TTITLE1=Oyaji ParaPra 〜いーんじゃない 2001〜 "STAY COOL" Original Mix
TTITLE2=Oyaji ParaPra 〜いーんじゃない 2001〜 Naoki Atsumi Hpayy Hardcore Mix
TTITLE3=Oyaji ParaPra 〜いーんじゃない 2001〜 Original KARAOKE
EXTD=YEAR: 2000
EXTT0=
EXTT1=
EXTT2=
EXTT3=
PLAYORDER=
